Coordinates
version=1
nRows=4
nColumns=172
inDegrees=yes

Units are S.I. units (second, meters, Newtons, ...)
Angles are in degrees.

endheader
time	pelvis_tilt	pelvis_list	pelvis_rotation	pelvis_tx	pelvis_ty	pelvis_tz	hip_flexion_r	hip_adduction_r	hip_rotation_r	knee_angle_r	knee_angle_r_beta	ankle_angle_r	subtalar_angle_r	mtp_angle_r	hip_flexion_l	hip_adduction_l	hip_rotation_l	knee_angle_l	knee_angle_l_beta	ankle_angle_l	subtalar_angle_l	mtp_angle_l	Abs_FE	Abs_LB	Abs_AR	L5_S1_FE	L5_S1_LB	L5_S1_AR	L4_L5_FE	L4_L5_LB	L4_L5_AR	L3_L4_FE	L3_L4_LB	L3_L4_AR	L2_L3_FE	L2_L3_LB	L2_L3_AR	L1_L2_FE	L1_L2_LB	L1_L2_AR	T12_L1_FE	T12_L1_LB	T12_L1_AR	T11_T12_FE	T11_T12_LB	T11_T12_AR	T10_T11_FE	T10_T11_LB	T10_T11_AR	T9_T10_FE	T9_T10_LB	T9_T10_AR	T8_T9_FE	T8_T9_LB	T8_T9_AR	T7_T8_FE	T7_T8_LB	T7_T8_AR	T6_T7_FE	T6_T7_LB	T6_T7_AR	T5_T6_FE	T5_T6_LB	T5_T6_AR	T4_T5_FE	T4_T5_LB	T4_T5_AR	T3_T4_FE	T3_T4_LB	T3_T4_AR	T2_T3_FE	T2_T3_LB	T2_T3_AR	T1_T2_FE	T1_T2_LB	T1_T2_AR	T1_head_neck_FE	T1_head_neck_LB	T1_head_neck_AR	T12_r12R_X	T12_r12R_Y	T12_r12R_Z	T11_r11R_X	T11_r11R_Y	T11_r11R_Z	T10_r10R_X	T10_r10R_Y	T10_r10R_Z	T9_r9R_X	T9_r9R_Y	T9_r9R_Z	T8_r8R_X	T8_r8R_Y	T8_r8R_Z	T7_r7R_X	T7_r7R_Y	T7_r7R_Z	T6_r6R_X	T6_r6R_Y	T6_r6R_Z	T5_r5R_X	T5_r5R_Y	T5_r5R_Z	T4_r4R_X	T4_r4R_Y	T4_r4R_Z	T3_r3R_X	T3_r3R_Y	T3_r3R_Z	T2_r2R_X	T2_r2R_Y	T2_r2R_Z	T1_r1R_X	T1_r1R_Y	T1_r1R_Z	T12_r12L_X	T12_r12L_Y	T12_r12L_Z	T11_r11L_X	T11_r11L_Y	T11_r11L_Z	T10_r10L_X	T10_r10L_Y	T10_r10L_Z	T9_r9L_X	T9_r9L_Y	T9_r9L_Z	T8_r8L_X	T8_r8L_Y	T8_r8L_Z	T7_r7L_X	T7_r7L_Y	T7_r7L_Z	T6_r6L_X	T6_r6L_Y	T6_r6L_Z	T5_r5L_X	T5_r5L_Y	T5_r5L_Z	T4_r4L_X	T4_r4L_Y	T4_r4L_Z	T3_r3L_X	T3_r3L_Y	T3_r3L_Z	T2_r2L_X	T2_r2L_Y	T2_r2L_Z	T1_r1L_X	T1_r1L_Y	T1_r1L_Z	SternumRotZ	SternumRotX	SternumRotY	SternumX	SternumY	SternumZ	shoulder_elv_r	shoulder_rot_r	elv_angle_r	elbow_flex_r	pro_sup_r	wrist_flex_r	wrist_dev_r	shoulder_elv_l	shoulder_rot_l	elv_angle_l	elbow_flex_l	pro_sup_l	wrist_flex_l	wrist_dev_l
      5.01000000	    -21.89796433	     -6.57512486	     -3.75453940	      0.47293516	      1.15435646	     -0.20438577	     68.65045038	      8.22738466	      3.07462560	    102.72643487	      1.79291452	      0.76117641	    -14.61580431	      0.00000000	     20.09723566	    -10.95153677	      0.47868536	     24.26427855	      0.42349155	    -21.95785093	    -11.19766008	      0.00000000	      0.00000000	      0.00000000	      0.00000000	    -22.77150792	      3.84699464	      6.38488799	    -17.44295420	      1.27131489	      1.08361063	    -13.10908892	      0.34266704	     -1.37165888	     -9.29349034	      0.14391356	     -2.07763203	     -6.32410738	      0.00703999	     -2.06171733	     -0.92109512	      0.17500930	     -1.46717463	      2.45425959	      0.22330996	     -0.80497160	      4.24265303	      0.12912607	     -0.31771656	      5.14498902	      0.10295550	      0.00850426	      6.28825378	      0.00974402	      0.24755602	      7.30044600	     -0.04021259	      0.39477226	      7.46446709	      0.18252447	      0.33043119	      6.30927614	      0.91047338	     -0.02382540	      2.81201780	      2.74247532	     -0.60052567	     -4.15990956	      5.97361917	     -1.10951257	    -14.63114404	     10.36807299	     -0.96041906	    -29.83093350	     15.28252074	     -1.12829986	      0.00000000	      0.00000000	      0.00000000	      0.00000000	      0.00000000	      0.00000000	      0.00000000	      0.00000000	      0.00000000	      0.00000000	      0.00000000	      0.00000000	      0.00000000	      0.00000000	      0.00000000	      0.00000000	      0.00000000	      0.00000000	      0.00000000	      0.00000000	      0.00000000	      0.00000000	      0.00000000	      0.00000000	      0.00000000	      0.00000000	      0.00000000	      0.00000000	      0.00000000	      0.00000000	      0.00000000	      0.00000000	      0.00000000	      0.00000000	      0.00000000	      0.00000000	     54.28425539	      0.00000000	      0.00000000	      0.00000000	      0.00000000	      0.00000000	      0.00000000	      0.00000000	      0.00000000	      0.00000000	      0.00000000	      0.00000000	      0.00000000	      0.00000000	      0.00000000	      0.00000000	      0.00000000	      0.00000000	      0.00000000	      0.00000000	      0.00000000	      0.00000000	      0.00000000	      0.00000000	      0.00000000	      0.00000000	      0.00000000	      0.00000000	      0.00000000	      0.00000000	      0.00000000	      0.00000000	      0.00000000	      0.00000000	      0.00000000	      0.00000000	      0.00000000	      0.00000000	      0.00000000	    -14.96905965	      5.97213236	      4.49449533	     -0.05432772	      0.04970775	     -0.02221345	     20.75964262	      0.07378552	     52.39151866	     54.91579945	     46.52094886	      0.00000000	      0.00000000	    -31.93024574	     -8.65878353	     60.89000260	     40.24387530	     47.08694784	      0.00000000	      0.00000000
      5.02000000	    -21.92782431	     -6.60657075	     -3.84094420	      0.47279471	      1.15687631	     -0.20329221	     68.79089064	      8.51752874	      3.10673976	    101.29822818	      1.76798761	      0.92972572	    -14.74567369	      0.00000000	     20.03440766	    -11.00613207	      0.81439419	     25.32437733	      0.44199377	    -22.02378123	    -11.50542707	      0.00000000	      0.00000000	      0.00000000	      0.00000000	    -22.82380090	      3.81022370	      6.39693816	    -17.49712195	      1.24695527	      1.09448572	    -13.16195993	      0.32307220	     -1.36166664	     -9.34238614	      0.12626116	     -2.06862891	     -6.36615347	     -0.00900533	     -2.05295241	     -0.95571563	      0.16087177	     -1.45934580	      2.43019315	      0.21181720	     -0.79763657	      4.22933035	      0.12038387	     -0.31059391	      5.14294163	      0.09734085	      0.01569508	      6.29484588	      0.00684739	      0.25479364	      7.31430655	     -0.04051288	      0.40200614	      7.48473736	      0.18489563	      0.33768626	      6.33444780	      0.91510567	     -0.01616655	      2.84176975	      2.74814489	     -0.59108147	     -4.12328860	      5.97706165	     -1.09566224	    -14.58229134	     10.36236403	     -0.93903593	    -29.76026699	     15.25749204	     -1.09997402	      0.00000000	      0.00000000	      0.00000000	      0.00000000	      0.00000000	      0.00000000	      0.00000000	      0.00000000	      0.00000000	      0.00000000	      0.00000000	      0.00000000	      0.00000000	      0.00000000	      0.00000000	      0.00000000	      0.00000000	      0.00000000	      0.00000000	      0.00000000	      0.00000000	      0.00000000	      0.00000000	      0.00000000	      0.00000000	      0.00000000	      0.00000000	      0.00000000	      0.00000000	      0.00000000	      0.00000000	      0.00000000	      0.00000000	      0.00000000	      0.00000000	      0.00000000	     54.25079984	      0.00000000	      0.00000000	      0.00000000	      0.00000000	      0.00000000	      0.00000000	      0.00000000	      0.00000000	      0.00000000	      0.00000000	      0.00000000	      0.00000000	      0.00000000	      0.00000000	      0.00000000	      0.00000000	      0.00000000	      0.00000000	      0.00000000	      0.00000000	      0.00000000	      0.00000000	      0.00000000	      0.00000000	      0.00000000	      0.00000000	      0.00000000	      0.00000000	      0.00000000	      0.00000000	      0.00000000	      0.00000000	      0.00000000	      0.00000000	      0.00000000	      0.00000000	      0.00000000	      0.00000000	    -15.01791693	      5.97940636	      4.50623751	     -0.05425672	      0.04962020	     -0.02211343	     20.72845929	      0.08891676	     52.52280184	     54.73358630	     46.48567754	      0.00000000	      0.00000000	    -32.04956259	     -8.62760894	     61.13710556	     39.91000911	     47.04958396	      0.00000000	      0.00000000
      5.03000000	    -22.03132853	     -6.84659044	     -3.83723349	      0.47251535	      1.15935318	     -0.20203640	     68.81893566	      8.85646418	      2.88808059	     99.58257453	      1.73804380	      1.03267762	    -15.05360340	      0.00000000	     20.36509322	    -11.28610023	      1.25748748	     26.86288221	      0.46884574	    -21.90905000	    -12.25083787	      0.00000000	      0.00000000	      0.00000000	      0.00000000	    -22.84895106	      3.83313098	      6.41306754	    -17.52544727	      1.27278096	      1.10915416	    -13.19544432	      0.34679337	     -1.34725553	     -9.37933522	      0.14558119	     -2.05397809	     -6.40193774	      0.00600582	     -2.03860519	     -0.98916037	      0.17101257	     -1.44487728	      2.40471574	      0.21798026	     -0.78333141	      4.21349298	      0.12345456	     -0.29644749	      5.13790974	      0.09800066	      0.02972625	      6.29765775	      0.00544535	      0.26882065	      7.32309819	     -0.04396698	      0.41612011	      7.49797527	      0.17928440	      0.35205023	      6.34994119	      0.90678885	     -0.00140839	      2.85893831	      2.73494647	     -0.57607388	     -4.10067740	      5.95470946	     -1.08118829	    -14.54537272	     10.32424604	     -0.92902790	    -29.69223349	     15.20180331	     -1.10244826	      0.00000000	      0.00000000	      0.00000000	      0.00000000	      0.00000000	      0.00000000	      0.00000000	      0.00000000	      0.00000000	      0.00000000	      0.00000000	      0.00000000	      0.00000000	      0.00000000	      0.00000000	      0.00000000	      0.00000000	      0.00000000	      0.00000000	      0.00000000	      0.00000000	      0.00000000	      0.00000000	      0.00000000	      0.00000000	      0.00000000	      0.00000000	      0.00000000	      0.00000000	      0.00000000	      0.00000000	      0.00000000	      0.00000000	      0.00000000	      0.00000000	      0.00000000	     54.20101575	      0.00000000	      0.00000000	      0.00000000	      0.00000000	      0.00000000	      0.00000000	      0.00000000	      0.00000000	      0.00000000	      0.00000000	      0.00000000	      0.00000000	      0.00000000	      0.00000000	      0.00000000	      0.00000000	      0.00000000	      0.00000000	      0.00000000	      0.00000000	      0.00000000	      0.00000000	      0.00000000	      0.00000000	      0.00000000	      0.00000000	      0.00000000	      0.00000000	      0.00000000	      0.00000000	      0.00000000	      0.00000000	      0.00000000	      0.00000000	      0.00000000	      0.00000000	      0.00000000	      0.00000000	    -15.13392159	      5.95010397	      4.51018843	     -0.05422176	      0.04941464	     -0.02223549	     20.57974634	      0.04665817	     52.81132704	     54.49080663	     46.41801375	      0.00000000	      0.00000000	    -32.36311321	     -8.54261810	     61.60412450	     39.50263619	     47.01792369	      0.00000000	      0.00000000
      5.04000000	    -22.03309306	     -6.88133924	     -3.83498567	      0.47237485	      1.16181445	     -0.20093601	     68.59195699	      9.09366901	      2.93814848	     97.75421016	      1.70613283	      0.94942944	    -15.38980828	      0.00000000	     20.70779871	    -11.31302449	      1.74955876	     28.63146599	      0.49971335	    -21.70049966	    -12.94360723	      0.00000000	      0.00000000	      0.00000000	      0.00000000	    -22.88953275	      3.80582189	      6.42153833	    -17.57149187	      1.25597577	      1.11724318	    -13.24466961	      0.33367311	     -1.33933054	     -9.42855237	      0.13337343	     -2.04636709	     -6.44658960	     -0.00581907	     -2.03085505	     -1.02832467	      0.15977315	     -1.43766749	      2.37604794	      0.20801457	     -0.77641669	      4.19638256	      0.11500346	     -0.28963882	      5.13328400	      0.09147466	      0.03667718	      6.30228425	      0.00058763	      0.27589400	      7.33506579	     -0.04723160	      0.42327279	      7.51583839	      0.17768161	      0.35932448	      6.37154216	      0.90639604	      0.00624907	      2.88375103	      2.73414849	     -0.56720616	     -4.06902738	      5.94941264	     -1.06964203	    -14.49843703	     10.30686641	     -0.91396865	    -29.61454932	     15.16436913	     -1.08650378	      0.00000000	      0.00000000	      0.00000000	      0.00000000	      0.00000000	      0.00000000	      0.00000000	      0.00000000	      0.00000000	      0.00000000	      0.00000000	      0.00000000	      0.00000000	      0.00000000	      0.00000000	      0.00000000	      0.00000000	      0.00000000	      0.00000000	      0.00000000	      0.00000000	      0.00000000	      0.00000000	      0.00000000	      0.00000000	      0.00000000	      0.00000000	      0.00000000	      0.00000000	      0.00000000	      0.00000000	      0.00000000	      0.00000000	      0.00000000	      0.00000000	      0.00000000	     54.14141842	      0.00000000	      0.00000000	      0.00000000	      0.00000000	      0.00000000	      0.00000000	      0.00000000	      0.00000000	      0.00000000	      0.00000000	      0.00000000	      0.00000000	      0.00000000	      0.00000000	      0.00000000	      0.00000000	      0.00000000	      0.00000000	      0.00000000	      0.00000000	      0.00000000	      0.00000000	      0.00000000	      0.00000000	      0.00000000	      0.00000000	      0.00000000	      0.00000000	      0.00000000	      0.00000000	      0.00000000	      0.00000000	      0.00000000	      0.00000000	      0.00000000	      0.00000000	      0.00000000	      0.00000000	    -15.23427231	      5.94866021	      4.51932872	     -0.05401492	      0.04923698	     -0.02217443	     20.47059458	      0.02290511	     52.98928117	     54.32298458	     46.36044173	      0.00000000	      0.00000000	    -32.57022700	     -8.49387595	     61.97825912	     39.12369615	     46.97420132	      0.00000000	      0.00000000
